<mxfile host="app.diagrams.net" modified="2023-11-28T17:24:21.665Z" agent="Mozilla/5.0 (Windows NT 10.0; Win64; x64; rv:120.0) Gecko/20100101 Firefox/120.0" etag="uK80hgOSLxrbz73vpdvJ" version="22.1.4" type="github">
  <diagram name="Page-1" id="uJzx6AROpPO-cn1wdiMp">
    <mxGraphModel dx="2284" dy="782" grid="1" gridSize="10" guides="1" tooltips="1" connect="1" arrows="1" fold="1" page="1" pageScale="1" pageWidth="850" pageHeight="1100" math="0" shadow="0">
      <root>
        <mxCell id="0" />
        <mxCell id="1" parent="0" />
        <mxCell id="3AJxVv07JlzmyXNLepOK-4" style="edgeStyle=orthogonalEdgeStyle;rounded=0;orthogonalLoop=1;jettySize=auto;html=1;exitX=0.5;exitY=1;exitDx=0;exitDy=0;entryX=0.5;entryY=0;entryDx=0;entryDy=0;" edge="1" parent="1" source="3AJxVv07JlzmyXNLepOK-1" target="3AJxVv07JlzmyXNLepOK-2">
          <mxGeometry relative="1" as="geometry" />
        </mxCell>
        <mxCell id="3AJxVv07JlzmyXNLepOK-1" value="&lt;div&gt;Game Start&lt;/div&gt;" style="rounded=1;whiteSpace=wrap;html=1;fillColor=#dae8fc;strokeColor=#6c8ebf;" vertex="1" parent="1">
          <mxGeometry x="360" y="80" width="120" height="60" as="geometry" />
        </mxCell>
        <mxCell id="3AJxVv07JlzmyXNLepOK-5" style="edgeStyle=orthogonalEdgeStyle;rounded=0;orthogonalLoop=1;jettySize=auto;html=1;exitX=0.5;exitY=1;exitDx=0;exitDy=0;entryX=0.5;entryY=0;entryDx=0;entryDy=0;" edge="1" parent="1" source="3AJxVv07JlzmyXNLepOK-2" target="3AJxVv07JlzmyXNLepOK-3">
          <mxGeometry relative="1" as="geometry" />
        </mxCell>
        <mxCell id="3AJxVv07JlzmyXNLepOK-2" value="Load Away Roster, Lineup, Rotation" style="rounded=1;whiteSpace=wrap;html=1;fillColor=#dae8fc;strokeColor=#6c8ebf;" vertex="1" parent="1">
          <mxGeometry x="360" y="160" width="120" height="60" as="geometry" />
        </mxCell>
        <mxCell id="3AJxVv07JlzmyXNLepOK-7" style="edgeStyle=orthogonalEdgeStyle;rounded=0;orthogonalLoop=1;jettySize=auto;html=1;exitX=0.5;exitY=1;exitDx=0;exitDy=0;entryX=0.5;entryY=0;entryDx=0;entryDy=0;" edge="1" parent="1" source="3AJxVv07JlzmyXNLepOK-3" target="3AJxVv07JlzmyXNLepOK-6">
          <mxGeometry relative="1" as="geometry" />
        </mxCell>
        <mxCell id="3AJxVv07JlzmyXNLepOK-3" value="Load Home Roster, Lineup, Rotation" style="rounded=1;whiteSpace=wrap;html=1;fillColor=#dae8fc;strokeColor=#6c8ebf;" vertex="1" parent="1">
          <mxGeometry x="360" y="240" width="120" height="60" as="geometry" />
        </mxCell>
        <mxCell id="3AJxVv07JlzmyXNLepOK-14" style="edgeStyle=orthogonalEdgeStyle;rounded=0;orthogonalLoop=1;jettySize=auto;html=1;exitX=0.5;exitY=1;exitDx=0;exitDy=0;" edge="1" parent="1" source="3AJxVv07JlzmyXNLepOK-6" target="3AJxVv07JlzmyXNLepOK-13">
          <mxGeometry relative="1" as="geometry" />
        </mxCell>
        <mxCell id="3AJxVv07JlzmyXNLepOK-6" value="&lt;div&gt;Start at top of First&lt;/div&gt;&lt;div&gt;Begin Game Loop&lt;br&gt;&lt;/div&gt;" style="rounded=1;whiteSpace=wrap;html=1;fillColor=#f8cecc;strokeColor=#b85450;" vertex="1" parent="1">
          <mxGeometry x="360" y="320" width="120" height="60" as="geometry" />
        </mxCell>
        <mxCell id="3AJxVv07JlzmyXNLepOK-17" style="edgeStyle=orthogonalEdgeStyle;rounded=0;orthogonalLoop=1;jettySize=auto;html=1;exitX=0.5;exitY=1;exitDx=0;exitDy=0;entryX=0.5;entryY=0;entryDx=0;entryDy=0;" edge="1" parent="1" source="3AJxVv07JlzmyXNLepOK-13" target="3AJxVv07JlzmyXNLepOK-16">
          <mxGeometry relative="1" as="geometry" />
        </mxCell>
        <mxCell id="3AJxVv07JlzmyXNLepOK-13" value="&lt;div&gt;Begin half inning loop&lt;/div&gt;" style="rounded=1;whiteSpace=wrap;html=1;fillColor=#ffe6cc;strokeColor=#d79b00;" vertex="1" parent="1">
          <mxGeometry x="360" y="440" width="120" height="60" as="geometry" />
        </mxCell>
        <mxCell id="3AJxVv07JlzmyXNLepOK-20" style="edgeStyle=orthogonalEdgeStyle;rounded=0;orthogonalLoop=1;jettySize=auto;html=1;exitX=1;exitY=0.5;exitDx=0;exitDy=0;entryX=0.5;entryY=0;entryDx=0;entryDy=0;" edge="1" parent="1" source="3AJxVv07JlzmyXNLepOK-16" target="3AJxVv07JlzmyXNLepOK-18">
          <mxGeometry relative="1" as="geometry" />
        </mxCell>
        <mxCell id="3AJxVv07JlzmyXNLepOK-16" value="&lt;div&gt;Determine Pitcher&lt;/div&gt;&lt;div&gt;Determine Batter&lt;br&gt;&lt;/div&gt;" style="rounded=1;whiteSpace=wrap;html=1;fillColor=#ffe6cc;strokeColor=#d79b00;" vertex="1" parent="1">
          <mxGeometry x="360" y="520" width="120" height="60" as="geometry" />
        </mxCell>
        <mxCell id="3AJxVv07JlzmyXNLepOK-24" style="edgeStyle=orthogonalEdgeStyle;rounded=0;orthogonalLoop=1;jettySize=auto;html=1;exitX=0.5;exitY=1;exitDx=0;exitDy=0;entryX=0.5;entryY=0;entryDx=0;entryDy=0;" edge="1" parent="1" source="3AJxVv07JlzmyXNLepOK-18" target="3AJxVv07JlzmyXNLepOK-23">
          <mxGeometry relative="1" as="geometry" />
        </mxCell>
        <mxCell id="3AJxVv07JlzmyXNLepOK-18" value="&lt;div&gt;&lt;b&gt;Roll Pitcher&lt;/b&gt;&lt;/div&gt;&lt;div&gt;&lt;font style=&quot;font-size: 9px;&quot;&gt;Control, Velocity, Stamina Remaining, Pitch Type or GB/FB ratio&lt;/font&gt;&lt;br&gt;&lt;/div&gt;" style="rounded=1;whiteSpace=wrap;html=1;fillColor=#ffe6cc;strokeColor=#d79b00;" vertex="1" parent="1">
          <mxGeometry x="520" y="580" width="120" height="60" as="geometry" />
        </mxCell>
        <mxCell id="3AJxVv07JlzmyXNLepOK-26" style="edgeStyle=orthogonalEdgeStyle;rounded=0;orthogonalLoop=1;jettySize=auto;html=1;exitX=0.5;exitY=1;exitDx=0;exitDy=0;entryX=0.5;entryY=0;entryDx=0;entryDy=0;" edge="1" parent="1" source="3AJxVv07JlzmyXNLepOK-23" target="3AJxVv07JlzmyXNLepOK-25">
          <mxGeometry relative="1" as="geometry" />
        </mxCell>
        <mxCell id="3AJxVv07JlzmyXNLepOK-23" value="&lt;div&gt;&lt;b&gt;Roll Batter&lt;/b&gt;&lt;/div&gt;&lt;div&gt;Eye, Power, Contact&lt;br&gt;&lt;/div&gt;" style="rounded=1;whiteSpace=wrap;html=1;fillColor=#ffe6cc;strokeColor=#d79b00;" vertex="1" parent="1">
          <mxGeometry x="520" y="680" width="120" height="60" as="geometry" />
        </mxCell>
        <mxCell id="3AJxVv07JlzmyXNLepOK-28" style="edgeStyle=orthogonalEdgeStyle;rounded=0;orthogonalLoop=1;jettySize=auto;html=1;exitX=0;exitY=0.5;exitDx=0;exitDy=0;entryX=1;entryY=0.5;entryDx=0;entryDy=0;" edge="1" parent="1" source="3AJxVv07JlzmyXNLepOK-25" target="3AJxVv07JlzmyXNLepOK-27">
          <mxGeometry relative="1" as="geometry" />
        </mxCell>
        <mxCell id="3AJxVv07JlzmyXNLepOK-30" style="edgeStyle=orthogonalEdgeStyle;rounded=0;orthogonalLoop=1;jettySize=auto;html=1;exitX=1;exitY=0.5;exitDx=0;exitDy=0;entryX=0;entryY=0.5;entryDx=0;entryDy=0;" edge="1" parent="1" source="3AJxVv07JlzmyXNLepOK-25" target="3AJxVv07JlzmyXNLepOK-29">
          <mxGeometry relative="1" as="geometry" />
        </mxCell>
        <mxCell id="3AJxVv07JlzmyXNLepOK-32" style="edgeStyle=orthogonalEdgeStyle;rounded=0;orthogonalLoop=1;jettySize=auto;html=1;exitX=0.5;exitY=1;exitDx=0;exitDy=0;entryX=0.5;entryY=0;entryDx=0;entryDy=0;" edge="1" parent="1" source="3AJxVv07JlzmyXNLepOK-25" target="3AJxVv07JlzmyXNLepOK-31">
          <mxGeometry relative="1" as="geometry" />
        </mxCell>
        <mxCell id="3AJxVv07JlzmyXNLepOK-25" value="Determine At-Bat Result" style="rounded=1;whiteSpace=wrap;html=1;fillColor=#ffe6cc;strokeColor=#d79b00;" vertex="1" parent="1">
          <mxGeometry x="520" y="780" width="120" height="60" as="geometry" />
        </mxCell>
        <mxCell id="3AJxVv07JlzmyXNLepOK-27" value="&lt;div&gt;Strikeout&lt;/div&gt;&lt;div&gt;Out++&lt;/div&gt;" style="rounded=1;whiteSpace=wrap;html=1;fillColor=#ffe6cc;strokeColor=#d79b00;" vertex="1" parent="1">
          <mxGeometry x="365" y="780" width="120" height="60" as="geometry" />
        </mxCell>
        <mxCell id="3AJxVv07JlzmyXNLepOK-64" style="edgeStyle=orthogonalEdgeStyle;rounded=0;orthogonalLoop=1;jettySize=auto;html=1;exitX=1;exitY=0.5;exitDx=0;exitDy=0;entryX=0;entryY=0.5;entryDx=0;entryDy=0;" edge="1" parent="1" source="3AJxVv07JlzmyXNLepOK-29" target="3AJxVv07JlzmyXNLepOK-63">
          <mxGeometry relative="1" as="geometry" />
        </mxCell>
        <mxCell id="3AJxVv07JlzmyXNLepOK-29" value="Walk" style="rounded=1;whiteSpace=wrap;html=1;fillColor=#ffe6cc;strokeColor=#d79b00;" vertex="1" parent="1">
          <mxGeometry x="680" y="780" width="120" height="60" as="geometry" />
        </mxCell>
        <mxCell id="3AJxVv07JlzmyXNLepOK-35" style="edgeStyle=orthogonalEdgeStyle;rounded=0;orthogonalLoop=1;jettySize=auto;html=1;exitX=0.5;exitY=1;exitDx=0;exitDy=0;entryX=1;entryY=0.5;entryDx=0;entryDy=0;" edge="1" parent="1" source="3AJxVv07JlzmyXNLepOK-31" target="3AJxVv07JlzmyXNLepOK-34">
          <mxGeometry relative="1" as="geometry" />
        </mxCell>
        <mxCell id="3AJxVv07JlzmyXNLepOK-37" style="edgeStyle=orthogonalEdgeStyle;rounded=0;orthogonalLoop=1;jettySize=auto;html=1;exitX=1;exitY=0.5;exitDx=0;exitDy=0;entryX=0;entryY=0.5;entryDx=0;entryDy=0;" edge="1" parent="1" source="3AJxVv07JlzmyXNLepOK-31" target="3AJxVv07JlzmyXNLepOK-36">
          <mxGeometry relative="1" as="geometry" />
        </mxCell>
        <mxCell id="3AJxVv07JlzmyXNLepOK-31" value="&lt;div&gt;&lt;b&gt;Hit&lt;/b&gt;&lt;/div&gt;&lt;div&gt;&lt;b&gt;Determine Hit Result&lt;/b&gt;&lt;/div&gt;&lt;div style=&quot;font-size: 9px;&quot;&gt;Batter Hit/Pull Ratio, Batter Power, Pitcher Velocity&lt;br&gt;&lt;/div&gt;" style="rounded=1;whiteSpace=wrap;html=1;fillColor=#ffe6cc;strokeColor=#d79b00;" vertex="1" parent="1">
          <mxGeometry x="520" y="880" width="120" height="60" as="geometry" />
        </mxCell>
        <mxCell id="3AJxVv07JlzmyXNLepOK-42" style="edgeStyle=orthogonalEdgeStyle;rounded=0;orthogonalLoop=1;jettySize=auto;html=1;exitX=0;exitY=0.5;exitDx=0;exitDy=0;entryX=0.5;entryY=1;entryDx=0;entryDy=0;" edge="1" parent="1" source="3AJxVv07JlzmyXNLepOK-34" target="3AJxVv07JlzmyXNLepOK-41">
          <mxGeometry relative="1" as="geometry" />
        </mxCell>
        <mxCell id="3AJxVv07JlzmyXNLepOK-34" value="&lt;div&gt;In-Play&lt;/div&gt;&lt;div&gt;Determine where ball is hit&lt;br&gt;&lt;/div&gt;" style="rounded=1;whiteSpace=wrap;html=1;fillColor=#ffe6cc;strokeColor=#d79b00;" vertex="1" parent="1">
          <mxGeometry x="360" y="960" width="120" height="60" as="geometry" />
        </mxCell>
        <mxCell id="3AJxVv07JlzmyXNLepOK-62" style="edgeStyle=orthogonalEdgeStyle;rounded=0;orthogonalLoop=1;jettySize=auto;html=1;exitX=0.5;exitY=1;exitDx=0;exitDy=0;entryX=0;entryY=0.75;entryDx=0;entryDy=0;" edge="1" parent="1" source="3AJxVv07JlzmyXNLepOK-36" target="3AJxVv07JlzmyXNLepOK-57">
          <mxGeometry relative="1" as="geometry">
            <Array as="points">
              <mxPoint x="740" y="1030" />
              <mxPoint x="-130" y="1030" />
              <mxPoint x="-130" y="625" />
            </Array>
          </mxGeometry>
        </mxCell>
        <mxCell id="3AJxVv07JlzmyXNLepOK-36" value="Home Run" style="rounded=1;whiteSpace=wrap;html=1;fillColor=#ffe6cc;strokeColor=#d79b00;" vertex="1" parent="1">
          <mxGeometry x="680" y="880" width="120" height="60" as="geometry" />
        </mxCell>
        <mxCell id="3AJxVv07JlzmyXNLepOK-44" style="edgeStyle=orthogonalEdgeStyle;rounded=0;orthogonalLoop=1;jettySize=auto;html=1;exitX=0;exitY=0.5;exitDx=0;exitDy=0;entryX=1;entryY=0.5;entryDx=0;entryDy=0;" edge="1" parent="1" source="3AJxVv07JlzmyXNLepOK-41" target="3AJxVv07JlzmyXNLepOK-43">
          <mxGeometry relative="1" as="geometry" />
        </mxCell>
        <mxCell id="3AJxVv07JlzmyXNLepOK-50" style="edgeStyle=orthogonalEdgeStyle;rounded=0;orthogonalLoop=1;jettySize=auto;html=1;exitX=0.5;exitY=0;exitDx=0;exitDy=0;" edge="1" parent="1" source="3AJxVv07JlzmyXNLepOK-41" target="3AJxVv07JlzmyXNLepOK-49">
          <mxGeometry relative="1" as="geometry" />
        </mxCell>
        <mxCell id="3AJxVv07JlzmyXNLepOK-41" value="&lt;div&gt;&lt;b&gt;Determine if HIT or OUT&lt;/b&gt;&lt;/div&gt;&lt;div&gt;&lt;font style=&quot;font-size: 8px;&quot;&gt;Hit Type, Batter Speed, Defender Speed, Defender Glove&lt;/font&gt;&lt;br&gt;&lt;/div&gt;" style="rounded=1;whiteSpace=wrap;html=1;fillColor=#ffe6cc;strokeColor=#d79b00;" vertex="1" parent="1">
          <mxGeometry x="200" y="880" width="120" height="60" as="geometry" />
        </mxCell>
        <mxCell id="3AJxVv07JlzmyXNLepOK-46" style="edgeStyle=orthogonalEdgeStyle;rounded=0;orthogonalLoop=1;jettySize=auto;html=1;exitX=0.5;exitY=0;exitDx=0;exitDy=0;entryX=0.5;entryY=1;entryDx=0;entryDy=0;" edge="1" parent="1" source="3AJxVv07JlzmyXNLepOK-43" target="3AJxVv07JlzmyXNLepOK-45">
          <mxGeometry relative="1" as="geometry" />
        </mxCell>
        <mxCell id="3AJxVv07JlzmyXNLepOK-48" style="edgeStyle=orthogonalEdgeStyle;rounded=0;orthogonalLoop=1;jettySize=auto;html=1;exitX=0;exitY=0.5;exitDx=0;exitDy=0;entryX=1;entryY=0.5;entryDx=0;entryDy=0;" edge="1" parent="1" source="3AJxVv07JlzmyXNLepOK-43" target="3AJxVv07JlzmyXNLepOK-47">
          <mxGeometry relative="1" as="geometry" />
        </mxCell>
        <mxCell id="3AJxVv07JlzmyXNLepOK-43" value="&lt;div&gt;OUT&lt;/div&gt;&lt;div&gt;Determine if throw needed&lt;br&gt;&lt;/div&gt;" style="rounded=1;whiteSpace=wrap;html=1;fillColor=#ffe6cc;strokeColor=#d79b00;" vertex="1" parent="1">
          <mxGeometry x="40" y="880" width="120" height="60" as="geometry" />
        </mxCell>
        <mxCell id="3AJxVv07JlzmyXNLepOK-56" style="edgeStyle=orthogonalEdgeStyle;rounded=0;orthogonalLoop=1;jettySize=auto;html=1;exitX=0.5;exitY=0;exitDx=0;exitDy=0;entryX=0.5;entryY=1;entryDx=0;entryDy=0;" edge="1" parent="1" source="3AJxVv07JlzmyXNLepOK-45" target="3AJxVv07JlzmyXNLepOK-55">
          <mxGeometry relative="1" as="geometry" />
        </mxCell>
        <mxCell id="3AJxVv07JlzmyXNLepOK-45" value="Yes" style="rounded=1;whiteSpace=wrap;html=1;fillColor=#ffe6cc;strokeColor=#d79b00;" vertex="1" parent="1">
          <mxGeometry x="40" y="780" width="120" height="60" as="geometry" />
        </mxCell>
        <mxCell id="3AJxVv07JlzmyXNLepOK-58" style="edgeStyle=orthogonalEdgeStyle;rounded=0;orthogonalLoop=1;jettySize=auto;html=1;exitX=0.5;exitY=0;exitDx=0;exitDy=0;entryX=0;entryY=0.5;entryDx=0;entryDy=0;" edge="1" parent="1" source="3AJxVv07JlzmyXNLepOK-47" target="3AJxVv07JlzmyXNLepOK-57">
          <mxGeometry relative="1" as="geometry" />
        </mxCell>
        <mxCell id="3AJxVv07JlzmyXNLepOK-47" value="No" style="rounded=1;whiteSpace=wrap;html=1;fillColor=#ffe6cc;strokeColor=#d79b00;" vertex="1" parent="1">
          <mxGeometry x="-120" y="880" width="120" height="60" as="geometry" />
        </mxCell>
        <mxCell id="3AJxVv07JlzmyXNLepOK-52" style="edgeStyle=orthogonalEdgeStyle;rounded=0;orthogonalLoop=1;jettySize=auto;html=1;exitX=0.5;exitY=0;exitDx=0;exitDy=0;entryX=0.5;entryY=1;entryDx=0;entryDy=0;" edge="1" parent="1" source="3AJxVv07JlzmyXNLepOK-49" target="3AJxVv07JlzmyXNLepOK-51">
          <mxGeometry relative="1" as="geometry" />
        </mxCell>
        <mxCell id="3AJxVv07JlzmyXNLepOK-49" value="&lt;div&gt;HIT&lt;/div&gt;" style="rounded=1;whiteSpace=wrap;html=1;fillColor=#ffe6cc;strokeColor=#d79b00;" vertex="1" parent="1">
          <mxGeometry x="200" y="780" width="120" height="60" as="geometry" />
        </mxCell>
        <mxCell id="3AJxVv07JlzmyXNLepOK-54" style="edgeStyle=orthogonalEdgeStyle;rounded=0;orthogonalLoop=1;jettySize=auto;html=1;exitX=0.5;exitY=0;exitDx=0;exitDy=0;entryX=0.5;entryY=1;entryDx=0;entryDy=0;" edge="1" parent="1" source="3AJxVv07JlzmyXNLepOK-51" target="3AJxVv07JlzmyXNLepOK-53">
          <mxGeometry relative="1" as="geometry" />
        </mxCell>
        <mxCell id="3AJxVv07JlzmyXNLepOK-51" value="&lt;div&gt;Determine Bases&lt;/div&gt;&lt;div&gt;&lt;font style=&quot;font-size: 10px;&quot;&gt;Hit Type (S,D,T), Batter Speed, Defender Arm Str, Defender Arm Acc&lt;/font&gt;&lt;/div&gt;" style="rounded=1;whiteSpace=wrap;html=1;fillColor=#ffe6cc;strokeColor=#d79b00;" vertex="1" parent="1">
          <mxGeometry x="200" y="680" width="120" height="60" as="geometry" />
        </mxCell>
        <mxCell id="3AJxVv07JlzmyXNLepOK-61" style="edgeStyle=orthogonalEdgeStyle;rounded=0;orthogonalLoop=1;jettySize=auto;html=1;exitX=0;exitY=0.5;exitDx=0;exitDy=0;entryX=1;entryY=0.5;entryDx=0;entryDy=0;" edge="1" parent="1" source="3AJxVv07JlzmyXNLepOK-53" target="3AJxVv07JlzmyXNLepOK-57">
          <mxGeometry relative="1" as="geometry" />
        </mxCell>
        <mxCell id="3AJxVv07JlzmyXNLepOK-53" value="&lt;div&gt;Determine Bases for any Base Runners&lt;/div&gt;&lt;div&gt;&lt;font style=&quot;font-size: 10px;&quot;&gt;Same qualifications as prior&lt;/font&gt;&lt;br&gt;&lt;/div&gt;" style="rounded=1;whiteSpace=wrap;html=1;fillColor=#ffe6cc;strokeColor=#d79b00;" vertex="1" parent="1">
          <mxGeometry x="200" y="580" width="120" height="60" as="geometry" />
        </mxCell>
        <mxCell id="3AJxVv07JlzmyXNLepOK-60" style="edgeStyle=orthogonalEdgeStyle;rounded=0;orthogonalLoop=1;jettySize=auto;html=1;exitX=0.5;exitY=0;exitDx=0;exitDy=0;entryX=0.5;entryY=1;entryDx=0;entryDy=0;" edge="1" parent="1" source="3AJxVv07JlzmyXNLepOK-55" target="3AJxVv07JlzmyXNLepOK-57">
          <mxGeometry relative="1" as="geometry" />
        </mxCell>
        <mxCell id="3AJxVv07JlzmyXNLepOK-55" value="&lt;div&gt;Determine if runner is out&lt;/div&gt;&lt;div&gt;&lt;font style=&quot;font-size: 8px;&quot;&gt;Runner Speed, Batter Arm/Acc, Distance Modifier, Base Modifier&lt;/font&gt;&lt;br&gt;&lt;/div&gt;" style="rounded=1;whiteSpace=wrap;html=1;fillColor=#ffe6cc;strokeColor=#d79b00;" vertex="1" parent="1">
          <mxGeometry x="40" y="680" width="120" height="60" as="geometry" />
        </mxCell>
        <mxCell id="3AJxVv07JlzmyXNLepOK-67" style="edgeStyle=orthogonalEdgeStyle;rounded=0;orthogonalLoop=1;jettySize=auto;html=1;exitX=0.5;exitY=0;exitDx=0;exitDy=0;entryX=0.5;entryY=1;entryDx=0;entryDy=0;" edge="1" parent="1" source="3AJxVv07JlzmyXNLepOK-57" target="3AJxVv07JlzmyXNLepOK-66">
          <mxGeometry relative="1" as="geometry" />
        </mxCell>
        <mxCell id="3AJxVv07JlzmyXNLepOK-57" value="&lt;div&gt;Tally Up Any Runs (Prior to Third Out)&lt;/div&gt;" style="rounded=1;whiteSpace=wrap;html=1;fillColor=#ffe6cc;strokeColor=#d79b00;" vertex="1" parent="1">
          <mxGeometry x="40" y="580" width="120" height="60" as="geometry" />
        </mxCell>
        <mxCell id="3AJxVv07JlzmyXNLepOK-65" style="edgeStyle=orthogonalEdgeStyle;rounded=0;orthogonalLoop=1;jettySize=auto;html=1;exitX=0.5;exitY=1;exitDx=0;exitDy=0;entryX=0;entryY=0.25;entryDx=0;entryDy=0;" edge="1" parent="1" source="3AJxVv07JlzmyXNLepOK-63" target="3AJxVv07JlzmyXNLepOK-57">
          <mxGeometry relative="1" as="geometry">
            <Array as="points">
              <mxPoint x="900" y="1040" />
              <mxPoint x="-140" y="1040" />
              <mxPoint x="-140" y="595" />
            </Array>
          </mxGeometry>
        </mxCell>
        <mxCell id="3AJxVv07JlzmyXNLepOK-63" value="Advance all runners 1 base" style="rounded=1;whiteSpace=wrap;html=1;fillColor=#ffe6cc;strokeColor=#d79b00;" vertex="1" parent="1">
          <mxGeometry x="840" y="780" width="120" height="60" as="geometry" />
        </mxCell>
        <mxCell id="3AJxVv07JlzmyXNLepOK-69" style="edgeStyle=orthogonalEdgeStyle;rounded=0;orthogonalLoop=1;jettySize=auto;html=1;exitX=0.5;exitY=0;exitDx=0;exitDy=0;" edge="1" parent="1" source="3AJxVv07JlzmyXNLepOK-66" target="3AJxVv07JlzmyXNLepOK-68">
          <mxGeometry relative="1" as="geometry" />
        </mxCell>
        <mxCell id="3AJxVv07JlzmyXNLepOK-71" style="edgeStyle=orthogonalEdgeStyle;rounded=0;orthogonalLoop=1;jettySize=auto;html=1;exitX=1;exitY=0.5;exitDx=0;exitDy=0;entryX=0;entryY=0.5;entryDx=0;entryDy=0;" edge="1" parent="1" source="3AJxVv07JlzmyXNLepOK-66" target="3AJxVv07JlzmyXNLepOK-70">
          <mxGeometry relative="1" as="geometry" />
        </mxCell>
        <mxCell id="3AJxVv07JlzmyXNLepOK-66" value="&lt;div&gt;Tally Outs&lt;br&gt;&lt;/div&gt;" style="rounded=1;whiteSpace=wrap;html=1;fillColor=#ffe6cc;strokeColor=#d79b00;" vertex="1" parent="1">
          <mxGeometry x="40" y="500" width="120" height="60" as="geometry" />
        </mxCell>
        <mxCell id="3AJxVv07JlzmyXNLepOK-77" style="edgeStyle=orthogonalEdgeStyle;rounded=0;orthogonalLoop=1;jettySize=auto;html=1;exitX=0.5;exitY=0;exitDx=0;exitDy=0;" edge="1" parent="1" source="3AJxVv07JlzmyXNLepOK-68" target="3AJxVv07JlzmyXNLepOK-73">
          <mxGeometry relative="1" as="geometry" />
        </mxCell>
        <mxCell id="3AJxVv07JlzmyXNLepOK-68" value="&lt;div&gt;Outs == 3&lt;/div&gt;&lt;div&gt;Inning Over&lt;/div&gt;" style="rounded=1;whiteSpace=wrap;html=1;fillColor=#ffe6cc;strokeColor=#d79b00;" vertex="1" parent="1">
          <mxGeometry x="40" y="420" width="120" height="60" as="geometry" />
        </mxCell>
        <mxCell id="3AJxVv07JlzmyXNLepOK-72" style="edgeStyle=orthogonalEdgeStyle;rounded=0;orthogonalLoop=1;jettySize=auto;html=1;exitX=1;exitY=0.5;exitDx=0;exitDy=0;entryX=0;entryY=0.5;entryDx=0;entryDy=0;" edge="1" parent="1" source="3AJxVv07JlzmyXNLepOK-70" target="3AJxVv07JlzmyXNLepOK-16">
          <mxGeometry relative="1" as="geometry" />
        </mxCell>
        <mxCell id="3AJxVv07JlzmyXNLepOK-70" value="Outs &amp;lt;= 2" style="rounded=1;whiteSpace=wrap;html=1;fillColor=#ffe6cc;strokeColor=#d79b00;" vertex="1" parent="1">
          <mxGeometry x="200" y="460" width="120" height="60" as="geometry" />
        </mxCell>
        <mxCell id="3AJxVv07JlzmyXNLepOK-75" style="edgeStyle=orthogonalEdgeStyle;rounded=0;orthogonalLoop=1;jettySize=auto;html=1;exitX=1;exitY=0.5;exitDx=0;exitDy=0;entryX=0;entryY=0.5;entryDx=0;entryDy=0;" edge="1" parent="1" source="3AJxVv07JlzmyXNLepOK-73" target="3AJxVv07JlzmyXNLepOK-74">
          <mxGeometry relative="1" as="geometry" />
        </mxCell>
        <mxCell id="3AJxVv07JlzmyXNLepOK-79" style="edgeStyle=orthogonalEdgeStyle;rounded=0;orthogonalLoop=1;jettySize=auto;html=1;exitX=0;exitY=0.5;exitDx=0;exitDy=0;entryX=1;entryY=0.5;entryDx=0;entryDy=0;" edge="1" parent="1" source="3AJxVv07JlzmyXNLepOK-73" target="3AJxVv07JlzmyXNLepOK-78">
          <mxGeometry relative="1" as="geometry" />
        </mxCell>
        <mxCell id="3AJxVv07JlzmyXNLepOK-73" value="Determine if game is over" style="rounded=1;whiteSpace=wrap;html=1;fillColor=#ffe6cc;strokeColor=#d79b00;" vertex="1" parent="1">
          <mxGeometry x="40" y="320" width="120" height="60" as="geometry" />
        </mxCell>
        <mxCell id="3AJxVv07JlzmyXNLepOK-76" style="edgeStyle=orthogonalEdgeStyle;rounded=0;orthogonalLoop=1;jettySize=auto;html=1;exitX=1;exitY=0.5;exitDx=0;exitDy=0;entryX=0.25;entryY=0;entryDx=0;entryDy=0;" edge="1" parent="1" source="3AJxVv07JlzmyXNLepOK-74" target="3AJxVv07JlzmyXNLepOK-13">
          <mxGeometry relative="1" as="geometry" />
        </mxCell>
        <mxCell id="3AJxVv07JlzmyXNLepOK-74" value="&lt;div&gt;Play On!&lt;/div&gt;&lt;div&gt;Swap sides, advance inning count if necessary&lt;br&gt;&lt;/div&gt;" style="rounded=1;whiteSpace=wrap;html=1;fillColor=#ffe6cc;strokeColor=#d79b00;" vertex="1" parent="1">
          <mxGeometry x="200" y="360" width="120" height="60" as="geometry" />
        </mxCell>
        <mxCell id="3AJxVv07JlzmyXNLepOK-78" value="&lt;div&gt;Game Over!&lt;/div&gt;&lt;div&gt;Save Stats, Game Log, etc.&lt;br&gt;&lt;/div&gt;" style="rounded=1;whiteSpace=wrap;html=1;fillColor=#f8cecc;strokeColor=#b85450;" vertex="1" parent="1">
          <mxGeometry x="-120" y="320" width="120" height="60" as="geometry" />
        </mxCell>
      </root>
    </mxGraphModel>
  </diagram>
</mxfile>
